# xmcd
#
# Track frame offsets:
# 150
# 19421
# 39942
# 55460
# 74497
# 94992
#
# Disc length: 1486 seconds
#
#
# Revision: 0
# Processed by: cddbd v1.4PL0 Copyright (c) Steve Scherf et al.
# Submitted via: FreeRIP 2.35 
#
DISCID=5205cc06
DTITLE=има кафопоукоу - леяа мувта
DYEAR=1900
DGENRE=Freestyle
TTITLE0=леяа мувта
TTITLE1=маи йака...
TTITLE2=пяохуяа
TTITLE3=ацапг жукайг
TTITLE4=маи йака..(ENGLISH VERSION)
TTITLE5=леяа мувта (VIDEO VERSION)
EXTD=
EXTT0=
EXTT1=
EXTT2=
EXTT3=
EXTT4=
EXTT5=
PLAYORDER=
